<svg width="1000" height="1000" viewBox="0 0 1000 1000" fill="none" xmlns="http://www.w3.org/2000/svg" preserveAspectRatio="none">
  <!-- Top edge - main line with breaks -->
  <path d="M 15 25 L 127 25 M 134 26 L 298 24 M 305 25 L 456 25 M 463 24 L 621 26 M 628 25 L 789 25 M 796 24 L 985 25"
        stroke="black" stroke-width="13" fill="none" stroke-linecap="round"/>

  <!-- Top edge - sketchy overlapping lines -->
  <path d="M 12 27 L 143 28 M 149 27 L 312 26 M 318 28 L 472 27 M 479 26 L 598 28 M 605 27 L 776 27 M 782 28 L 988 27"
        stroke="black" stroke-width="9" fill="none" opacity="0.6" stroke-linecap="round"/>
  <path d="M 18 23 L 89 24 M 96 23 L 234 22 M 241 24 L 401 23 M 408 22 L 556 24 M 563 23 L 712 23 M 719 24 L 876 22 M 883 23 L 982 23"
        stroke="black" stroke-width="7" fill="none" opacity="0.4" stroke-linecap="round"/>
  <path d="M 10 26 L 176 25 M 183 26 L 367 26 M 374 25 L 523 26 M 530 25 L 689 26 M 696 25 L 843 26 M 850 25 L 990 26"
        stroke="black" stroke-width="5" fill="none" opacity="0.3" stroke-linecap="round"/>

  <!-- Right edge - main line with breaks -->
  <path d="M 975 20 L 975 143 M 976 150 L 974 289 M 975 296 L 975 447 M 976 454 L 974 612 M 975 619 L 975 768 M 976 775 L 975 980"
        stroke="black" stroke-width="13" fill="none" stroke-linecap="round"/>

  <!-- Right edge - sketchy overlapping lines -->
  <path d="M 973 18 L 973 156 M 972 163 L 973 317 M 972 324 L 973 465 M 972 472 L 973 634 M 972 641 L 973 801 M 972 808 L 973 982"
        stroke="black" stroke-width="9" fill="none" opacity="0.6" stroke-linecap="round"/>
  <path d="M 977 22 L 977 98 M 978 105 L 977 245 M 978 252 L 977 389 M 978 396 L 977 567 M 978 574 L 977 723 M 978 730 L 977 887 M 978 894 L 977 978"
        stroke="black" stroke-width="7" fill="none" opacity="0.4" stroke-linecap="round"/>
  <path d="M 974 15 L 974 189 M 975 196 L 974 356 M 975 363 L 974 534 M 975 541 L 974 678 M 975 685 L 974 834 M 975 841 L 974 985"
        stroke="black" stroke-width="5" fill="none" opacity="0.3" stroke-linecap="round"/>

  <!-- Bottom edge - main line with breaks -->
  <path d="M 985 975 L 812 976 M 805 975 L 643 975 M 636 976 L 487 975 M 480 976 L 321 975 M 314 974 L 178 976 M 171 975 L 15 975"
        stroke="black" stroke-width="13" fill="none" stroke-linecap="round"/>

  <!-- Bottom edge - sketchy overlapping lines -->
  <path d="M 988 973 L 834 972 M 827 973 L 689 973 M 682 972 L 523 973 M 516 972 L 367 973 M 360 972 L 198 973 M 191 972 L 12 973"
        stroke="black" stroke-width="9" fill="none" opacity="0.6" stroke-linecap="round"/>
  <path d="M 982 977 L 901 978 M 894 977 L 756 977 M 749 978 L 612 977 M 605 978 L 445 977 M 438 978 L 289 977 M 282 978 L 134 977 M 127 978 L 18 977"
        stroke="black" stroke-width="7" fill="none" opacity="0.4" stroke-linecap="round"/>
  <path d="M 990 974 L 823 975 M 816 974 L 667 974 M 660 975 L 498 974 M 491 975 L 356 974 M 349 975 L 201 974 M 194 975 L 10 974"
        stroke="black" stroke-width="5" fill="none" opacity="0.3" stroke-linecap="round"/>

  <!-- Left edge - main line with breaks -->
  <path d="M 25 980 L 25 821 M 24 814 L 26 671 M 25 664 L 25 512 M 24 505 L 26 345 M 25 338 L 25 189 M 24 182 L 25 20"
        stroke="black" stroke-width="13" fill="none" stroke-linecap="round"/>

  <!-- Left edge - sketchy overlapping lines -->
  <path d="M 27 982 L 27 843 M 28 836 L 27 678 M 28 671 L 27 534 M 28 527 L 27 389 M 28 382 L 27 212 M 28 205 L 27 18"
        stroke="black" stroke-width="9" fill="none" opacity="0.6" stroke-linecap="round"/>
  <path d="M 23 978 L 23 912 M 22 905 L 23 745 M 22 738 L 23 598 M 22 591 L 23 423 M 22 416 L 23 267 M 22 260 L 23 112 M 22 105 L 23 22"
        stroke="black" stroke-width="7" fill="none" opacity="0.4" stroke-linecap="round"/>
  <path d="M 26 985 L 26 856 M 27 849 L 26 701 M 27 694 L 26 545 M 27 538 L 26 378 M 27 371 L 26 234 M 27 227 L 26 15"
        stroke="black" stroke-width="5" fill="none" opacity="0.3" stroke-linecap="round"/>
</svg>